<svg xmlns="http://www.w3.org/2000/svg" viewBox="0 0 1200 1500" role="img" aria-labelledby="title desc">
<title id="title">Activation function gallery</title>
<desc id="desc">A gallery of common activation functions with formulas and plots.</desc>
<rect width="1200" height="1500" fill="#f8fafc"/>
<text x="34" y="34" font-family="Inter,Arial,sans-serif" font-size="24" font-weight="700" fill="#0f172a">Activation function gallery</text>
<text x="34" y="58" font-family="Inter,Arial,sans-serif" font-size="14" fill="#475569">Scalar functions are sampled over z in [-5, 5]. GELU uses the exact erf form. Softmax is shown as probabilities because it maps a vector to a vector.</text>
<rect x="34" y="72" width="550" height="258" rx="8" fill="#ffffff" stroke="#cbd5e1"/>
<text x="54" y="102" font-family="Inter,Arial,sans-serif" font-size="20" font-weight="700" fill="#0f172a">Binary step</text>
<text x="54" y="126" font-family="Inter,Arial,sans-serif" font-size="14" fill="#475569">f(z) = 1[z &gt;= 0]</text>
<line x1="76" y1="254.00" x2="551" y2="254.00" stroke="#cbd5e1"/>
<line x1="313.50" y1="144" x2="313.50" y2="276" stroke="#cbd5e1"/>
<rect x="76" y="144" width="475" height="132" fill="none" stroke="#e2e8f0"/>
<path d="M76.00,254.00 L77.83,254.00 L79.65,254.00 L81.48,254.00 L83.31,254.00 L85.13,254.00 L86.96,254.00 L88.79,254.00 L90.62,254.00 L92.44,254.00 L94.27,254.00 L96.10,254.00 L97.92,254.00 L99.75,254.00 L101.58,254.00 L103.40,254.00 L105.23,254.00 L107.06,254.00 L108.88,254.00 L110.71,254.00 L112.54,254.00 L114.37,254.00 L116.19,254.00 L118.02,254.00 L119.85,254.00 L121.67,254.00 L123.50,254.00 L125.33,254.00 L127.15,254.00 L128.98,254.00 L130.81,254.00 L132.63,254.00 L134.46,254.00 L136.29,254.00 L138.12,254.00 L139.94,254.00 L141.77,254.00 L143.60,254.00 L145.42,254.00 L147.25,254.00 L149.08,254.00 L150.90,254.00 L152.73,254.00 L154.56,254.00 L156.38,254.00 L158.21,254.00 L160.04,254.00 L161.87,254.00 L163.69,254.00 L165.52,254.00 L167.35,254.00 L169.17,254.00 L171.00,254.00 L172.83,254.00 L174.65,254.00 L176.48,254.00 L178.31,254.00 L180.13,254.00 L181.96,254.00 L183.79,254.00 L185.62,254.00 L187.44,254.00 L189.27,254.00 L191.10,254.00 L192.92,254.00 L194.75,254.00 L196.58,254.00 L198.40,254.00 L200.23,254.00 L202.06,254.00 L203.88,254.00 L205.71,254.00 L207.54,254.00 L209.37,254.00 L211.19,254.00 L213.02,254.00 L214.85,254.00 L216.67,254.00 L218.50,254.00 L220.33,254.00 L222.15,254.00 L223.98,254.00 L225.81,254.00 L227.63,254.00 L229.46,254.00 L231.29,254.00 L233.12,254.00 L234.94,254.00 L236.77,254.00 L238.60,254.00 L240.42,254.00 L242.25,254.00 L244.08,254.00 L245.90,254.00 L247.73,254.00 L249.56,254.00 L251.38,254.00 L253.21,254.00 L255.04,254.00 L256.87,254.00 L258.69,254.00 L260.52,254.00 L262.35,254.00 L264.17,254.00 L266.00,254.00 L267.83,254.00 L269.65,254.00 L271.48,254.00 L273.31,254.00 L275.13,254.00 L276.96,254.00 L278.79,254.00 L280.62,254.00 L282.44,254.00 L284.27,254.00 L286.10,254.00 L287.92,254.00 L289.75,254.00 L291.58,254.00 L293.40,254.00 L295.23,254.00 L297.06,254.00 L298.88,254.00 L300.71,254.00 L302.54,254.00 L304.37,254.00 L306.19,254.00 L308.02,254.00 L309.85,254.00 L311.67,254.00" fill="none" stroke="#2563eb" stroke-width="3" stroke-linecap="round" stroke-linejoin="round"/>
<path d="M313.50,166.00 L315.33,166.00 L317.15,166.00 L318.98,166.00 L320.81,166.00 L322.63,166.00 L324.46,166.00 L326.29,166.00 L328.12,166.00 L329.94,166.00 L331.77,166.00 L333.60,166.00 L335.42,166.00 L337.25,166.00 L339.08,166.00 L340.90,166.00 L342.73,166.00 L344.56,166.00 L346.38,166.00 L348.21,166.00 L350.04,166.00 L351.87,166.00 L353.69,166.00 L355.52,166.00 L357.35,166.00 L359.17,166.00 L361.00,166.00 L362.83,166.00 L364.65,166.00 L366.48,166.00 L368.31,166.00 L370.13,166.00 L371.96,166.00 L373.79,166.00 L375.62,166.00 L377.44,166.00 L379.27,166.00 L381.10,166.00 L382.92,166.00 L384.75,166.00 L386.58,166.00 L388.40,166.00 L390.23,166.00 L392.06,166.00 L393.88,166.00 L395.71,166.00 L397.54,166.00 L399.37,166.00 L401.19,166.00 L403.02,166.00 L404.85,166.00 L406.67,166.00 L408.50,166.00 L410.33,166.00 L412.15,166.00 L413.98,166.00 L415.81,166.00 L417.63,166.00 L419.46,166.00 L421.29,166.00 L423.12,166.00 L424.94,166.00 L426.77,166.00 L428.60,166.00 L430.42,166.00 L432.25,166.00 L434.08,166.00 L435.90,166.00 L437.73,166.00 L439.56,166.00 L441.38,166.00 L443.21,166.00 L445.04,166.00 L446.87,166.00 L448.69,166.00 L450.52,166.00 L452.35,166.00 L454.17,166.00 L456.00,166.00 L457.83,166.00 L459.65,166.00 L461.48,166.00 L463.31,166.00 L465.13,166.00 L466.96,166.00 L468.79,166.00 L470.62,166.00 L472.44,166.00 L474.27,166.00 L476.10,166.00 L477.92,166.00 L479.75,166.00 L481.58,166.00 L483.40,166.00 L485.23,166.00 L487.06,166.00 L488.88,166.00 L490.71,166.00 L492.54,166.00 L494.37,166.00 L496.19,166.00 L498.02,166.00 L499.85,166.00 L501.67,166.00 L503.50,166.00 L505.33,166.00 L507.15,166.00 L508.98,166.00 L510.81,166.00 L512.63,166.00 L514.46,166.00 L516.29,166.00 L518.12,166.00 L519.94,166.00 L521.77,166.00 L523.60,166.00 L525.42,166.00 L527.25,166.00 L529.08,166.00 L530.90,166.00 L532.73,166.00 L534.56,166.00 L536.38,166.00 L538.21,166.00 L540.04,166.00 L541.87,166.00 L543.69,166.00 L545.52,166.00 L547.35,166.00 L549.17,166.00 L551.00,166.00" fill="none" stroke="#2563eb" stroke-width="3" stroke-linecap="round" stroke-linejoin="round"/>
<line x1="313.50" y1="254.00" x2="313.50" y2="166.00" stroke="#2563eb" stroke-width="2" stroke-dasharray="4 4"/>
<rect x="616" y="72" width="550" height="258" rx="8" fill="#ffffff" stroke="#cbd5e1"/>
<text x="636" y="102" font-family="Inter,Arial,sans-serif" font-size="20" font-weight="700" fill="#0f172a">Sign</text>
<text x="636" y="126" font-family="Inter,Arial,sans-serif" font-size="14" fill="#475569">f(z) = sign(z)</text>
<line x1="658" y1="210.00" x2="1133" y2="210.00" stroke="#cbd5e1"/>
<line x1="895.50" y1="144" x2="895.50" y2="276" stroke="#cbd5e1"/>
<rect x="658" y="144" width="475" height="132" fill="none" stroke="#e2e8f0"/>
<path d="M658.00,262.80 L659.83,262.80 L661.65,262.80 L663.48,262.80 L665.31,262.80 L667.13,262.80 L668.96,262.80 L670.79,262.80 L672.62,262.80 L674.44,262.80 L676.27,262.80 L678.10,262.80 L679.92,262.80 L681.75,262.80 L683.58,262.80 L685.40,262.80 L687.23,262.80 L689.06,262.80 L690.88,262.80 L692.71,262.80 L694.54,262.80 L696.37,262.80 L698.19,262.80 L700.02,262.80 L701.85,262.80 L703.67,262.80 L705.50,262.80 L707.33,262.80 L709.15,262.80 L710.98,262.80 L712.81,262.80 L714.63,262.80 L716.46,262.80 L718.29,262.80 L720.12,262.80 L721.94,262.80 L723.77,262.80 L725.60,262.80 L727.42,262.80 L729.25,262.80 L731.08,262.80 L732.90,262.80 L734.73,262.80 L736.56,262.80 L738.38,262.80 L740.21,262.80 L742.04,262.80 L743.87,262.80 L745.69,262.80 L747.52,262.80 L749.35,262.80 L751.17,262.80 L753.00,262.80 L754.83,262.80 L756.65,262.80 L758.48,262.80 L760.31,262.80 L762.13,262.80 L763.96,262.80 L765.79,262.80 L767.62,262.80 L769.44,262.80 L771.27,262.80 L773.10,262.80 L774.92,262.80 L776.75,262.80 L778.58,262.80 L780.40,262.80 L782.23,262.80 L784.06,262.80 L785.88,262.80 L787.71,262.80 L789.54,262.80 L791.37,262.80 L793.19,262.80 L795.02,262.80 L796.85,262.80 L798.67,262.80 L800.50,262.80 L802.33,262.80 L804.15,262.80 L805.98,262.80 L807.81,262.80 L809.63,262.80 L811.46,262.80 L813.29,262.80 L815.12,262.80 L816.94,262.80 L818.77,262.80 L820.60,262.80 L822.42,262.80 L824.25,262.80 L826.08,262.80 L827.90,262.80 L829.73,262.80 L831.56,262.80 L833.38,262.80 L835.21,262.80 L837.04,262.80 L838.87,262.80 L840.69,262.80 L842.52,262.80 L844.35,262.80 L846.17,262.80 L848.00,262.80 L849.83,262.80 L851.65,262.80 L853.48,262.80 L855.31,262.80 L857.13,262.80 L858.96,262.80 L860.79,262.80 L862.62,262.80 L864.44,262.80 L866.27,262.80 L868.10,262.80 L869.92,262.80 L871.75,262.80 L873.58,262.80 L875.40,262.80 L877.23,262.80 L879.06,262.80 L880.88,262.80 L882.71,262.80 L884.54,262.80 L886.37,262.80 L888.19,262.80 L890.02,262.80 L891.85,262.80 L893.67,262.80" fill="none" stroke="#ea580c" stroke-width="3" stroke-linecap="round" stroke-linejoin="round"/>
<path d="M895.50,157.20 L897.33,157.20 L899.15,157.20 L900.98,157.20 L902.81,157.20 L904.63,157.20 L906.46,157.20 L908.29,157.20 L910.12,157.20 L911.94,157.20 L913.77,157.20 L915.60,157.20 L917.42,157.20 L919.25,157.20 L921.08,157.20 L922.90,157.20 L924.73,157.20 L926.56,157.20 L928.38,157.20 L930.21,157.20 L932.04,157.20 L933.87,157.20 L935.69,157.20 L937.52,157.20 L939.35,157.20 L941.17,157.20 L943.00,157.20 L944.83,157.20 L946.65,157.20 L948.48,157.20 L950.31,157.20 L952.13,157.20 L953.96,157.20 L955.79,157.20 L957.62,157.20 L959.44,157.20 L961.27,157.20 L963.10,157.20 L964.92,157.20 L966.75,157.20 L968.58,157.20 L970.40,157.20 L972.23,157.20 L974.06,157.20 L975.88,157.20 L977.71,157.20 L979.54,157.20 L981.37,157.20 L983.19,157.20 L985.02,157.20 L986.85,157.20 L988.67,157.20 L990.50,157.20 L992.33,157.20 L994.15,157.20 L995.98,157.20 L997.81,157.20 L999.63,157.20 L1001.46,157.20 L1003.29,157.20 L1005.12,157.20 L1006.94,157.20 L1008.77,157.20 L1010.60,157.20 L1012.42,157.20 L1014.25,157.20 L1016.08,157.20 L1017.90,157.20 L1019.73,157.20 L1021.56,157.20 L1023.38,157.20 L1025.21,157.20 L1027.04,157.20 L1028.87,157.20 L1030.69,157.20 L1032.52,157.20 L1034.35,157.20 L1036.17,157.20 L1038.00,157.20 L1039.83,157.20 L1041.65,157.20 L1043.48,157.20 L1045.31,157.20 L1047.13,157.20 L1048.96,157.20 L1050.79,157.20 L1052.62,157.20 L1054.44,157.20 L1056.27,157.20 L1058.10,157.20 L1059.92,157.20 L1061.75,157.20 L1063.58,157.20 L1065.40,157.20 L1067.23,157.20 L1069.06,157.20 L1070.88,157.20 L1072.71,157.20 L1074.54,157.20 L1076.37,157.20 L1078.19,157.20 L1080.02,157.20 L1081.85,157.20 L1083.67,157.20 L1085.50,157.20 L1087.33,157.20 L1089.15,157.20 L1090.98,157.20 L1092.81,157.20 L1094.63,157.20 L1096.46,157.20 L1098.29,157.20 L1100.12,157.20 L1101.94,157.20 L1103.77,157.20 L1105.60,157.20 L1107.42,157.20 L1109.25,157.20 L1111.08,157.20 L1112.90,157.20 L1114.73,157.20 L1116.56,157.20 L1118.38,157.20 L1120.21,157.20 L1122.04,157.20 L1123.87,157.20 L1125.69,157.20 L1127.52,157.20 L1129.35,157.20 L1131.17,157.20 L1133.00,157.20" fill="none" stroke="#ea580c" stroke-width="3" stroke-linecap="round" stroke-linejoin="round"/>
<line x1="895.50" y1="262.80" x2="895.50" y2="157.20" stroke="#ea580c" stroke-width="2" stroke-dasharray="4 4"/>
<rect x="34" y="364" width="550" height="258" rx="8" fill="#ffffff" stroke="#cbd5e1"/>
<text x="54" y="394" font-family="Inter,Arial,sans-serif" font-size="20" font-weight="700" fill="#0f172a">Sigmoid</text>
<text x="54" y="418" font-family="Inter,Arial,sans-serif" font-size="14" fill="#475569">f(z) = 1 / (1 + exp(-z))</text>
<line x1="76" y1="552.77" x2="551" y2="552.77" stroke="#cbd5e1"/>
<line x1="313.50" y1="436" x2="313.50" y2="568" stroke="#cbd5e1"/>
<rect x="76" y="436" width="475" height="132" fill="none" stroke="#e2e8f0"/>
<path d="M76.00,552.09 L77.83,552.06 L79.65,552.04 L81.48,552.01 L83.31,551.98 L85.13,551.95 L86.96,551.91 L88.79,551.88 L90.62,551.85 L92.44,551.81 L94.27,551.77 L96.10,551.74 L97.92,551.70 L99.75,551.65 L101.58,551.61 L103.40,551.57 L105.23,551.52 L107.06,551.47 L108.88,551.42 L110.71,551.37 L112.54,551.31 L114.37,551.26 L116.19,551.20 L118.02,551.14 L119.85,551.08 L121.67,551.01 L123.50,550.94 L125.33,550.87 L127.15,550.80 L128.98,550.72 L130.81,550.65 L132.63,550.56 L134.46,550.48 L136.29,550.39 L138.12,550.30 L139.94,550.21 L141.77,550.11 L143.60,550.01 L145.42,549.90 L147.25,549.79 L149.08,549.68 L150.90,549.56 L152.73,549.44 L154.56,549.31 L156.38,549.18 L158.21,549.05 L160.04,548.91 L161.87,548.76 L163.69,548.61 L165.52,548.46 L167.35,548.29 L169.17,548.13 L171.00,547.95 L172.83,547.77 L174.65,547.59 L176.48,547.40 L178.31,547.20 L180.13,546.99 L181.96,546.78 L183.79,546.56 L185.62,546.33 L187.44,546.09 L189.27,545.85 L191.10,545.60 L192.92,545.34 L194.75,545.07 L196.58,544.79 L198.40,544.50 L200.23,544.20 L202.06,543.90 L203.88,543.58 L205.71,543.25 L207.54,542.92 L209.37,542.57 L211.19,542.21 L213.02,541.84 L214.85,541.46 L216.67,541.07 L218.50,540.67 L220.33,540.25 L222.15,539.82 L223.98,539.38 L225.81,538.93 L227.63,538.46 L229.46,537.98 L231.29,537.49 L233.12,536.98 L234.94,536.46 L236.77,535.93 L238.60,535.38 L240.42,534.82 L242.25,534.25 L244.08,533.66 L245.90,533.05 L247.73,532.43 L249.56,531.80 L251.38,531.15 L253.21,530.49 L255.04,529.82 L256.87,529.13 L258.69,528.42 L260.52,527.70 L262.35,526.97 L264.17,526.22 L266.00,525.46 L267.83,524.69 L269.65,523.90 L271.48,523.10 L273.31,522.28 L275.13,521.46 L276.96,520.62 L278.79,519.77 L280.62,518.90 L282.44,518.03 L284.27,517.15 L286.10,516.25 L287.92,515.35 L289.75,514.43 L291.58,513.51 L293.40,512.58 L295.23,511.64 L297.06,510.70 L298.88,509.75 L300.71,508.79 L302.54,507.83 L304.37,506.87 L306.19,505.90 L308.02,504.93 L309.85,503.95 L311.67,502.98 L313.50,502.00 L315.33,501.02 L317.15,500.05 L318.98,499.07 L320.81,498.10 L322.63,497.13 L324.46,496.17 L326.29,495.21 L328.12,494.25 L329.94,493.30 L331.77,492.36 L333.60,491.42 L335.42,490.49 L337.25,489.57 L339.08,488.65 L340.90,487.75 L342.73,486.85 L344.56,485.97 L346.38,485.10 L348.21,484.23 L350.04,483.38 L351.87,482.54 L353.69,481.72 L355.52,480.90 L357.35,480.10 L359.17,479.31 L361.00,478.54 L362.83,477.78 L364.65,477.03 L366.48,476.30 L368.31,475.58 L370.13,474.87 L371.96,474.18 L373.79,473.51 L375.62,472.85 L377.44,472.20 L379.27,471.57 L381.10,470.95 L382.92,470.34 L384.75,469.75 L386.58,469.18 L388.40,468.62 L390.23,468.07 L392.06,467.54 L393.88,467.02 L395.71,466.51 L397.54,466.02 L399.37,465.54 L401.19,465.07 L403.02,464.62 L404.85,464.18 L406.67,463.75 L408.50,463.33 L410.33,462.93 L412.15,462.54 L413.98,462.16 L415.81,461.79 L417.63,461.43 L419.46,461.08 L421.29,460.75 L423.12,460.42 L424.94,460.10 L426.77,459.80 L428.60,459.50 L430.42,459.21 L432.25,458.93 L434.08,458.66 L435.90,458.40 L437.73,458.15 L439.56,457.91 L441.38,457.67 L443.21,457.44 L445.04,457.22 L446.87,457.01 L448.69,456.80 L450.52,456.60 L452.35,456.41 L454.17,456.23 L456.00,456.05 L457.83,455.87 L459.65,455.71 L461.48,455.54 L463.31,455.39 L465.13,455.24 L466.96,455.09 L468.79,454.95 L470.62,454.82 L472.44,454.69 L474.27,454.56 L476.10,454.44 L477.92,454.32 L479.75,454.21 L481.58,454.10 L483.40,453.99 L485.23,453.89 L487.06,453.79 L488.88,453.70 L490.71,453.61 L492.54,453.52 L494.37,453.44 L496.19,453.35 L498.02,453.28 L499.85,453.20 L501.67,453.13 L503.50,453.06 L505.33,452.99 L507.15,452.92 L508.98,452.86 L510.81,452.80 L512.63,452.74 L514.46,452.69 L516.29,452.63 L518.12,452.58 L519.94,452.53 L521.77,452.48 L523.60,452.43 L525.42,452.39 L527.25,452.35 L529.08,452.30 L530.90,452.26 L532.73,452.23 L534.56,452.19 L536.38,452.15 L538.21,452.12 L540.04,452.09 L541.87,452.05 L543.69,452.02 L545.52,451.99 L547.35,451.96 L549.17,451.94 L551.00,451.91" fill="none" stroke="#2563eb" stroke-width="3" stroke-linecap="round" stroke-linejoin="round"/>
<rect x="616" y="364" width="550" height="258" rx="8" fill="#ffffff" stroke="#cbd5e1"/>
<text x="636" y="394" font-family="Inter,Arial,sans-serif" font-size="20" font-weight="700" fill="#0f172a">Tanh</text>
<text x="636" y="418" font-family="Inter,Arial,sans-serif" font-size="14" fill="#475569">f(z) = tanh(z)</text>
<line x1="658" y1="502.00" x2="1133" y2="502.00" stroke="#cbd5e1"/>
<line x1="895.50" y1="436" x2="895.50" y2="568" stroke="#cbd5e1"/>
<rect x="658" y="436" width="475" height="132" fill="none" stroke="#e2e8f0"/>
<path d="M658.00,554.80 L659.83,554.79 L661.65,554.79 L663.48,554.79 L665.31,554.79 L667.13,554.79 L668.96,554.79 L670.79,554.79 L672.62,554.79 L674.44,554.79 L676.27,554.79 L678.10,554.79 L679.92,554.79 L681.75,554.79 L683.58,554.79 L685.40,554.78 L687.23,554.78 L689.06,554.78 L690.88,554.78 L692.71,554.78 L694.54,554.78 L696.37,554.78 L698.19,554.77 L700.02,554.77 L701.85,554.77 L703.67,554.77 L705.50,554.76 L707.33,554.76 L709.15,554.76 L710.98,554.76 L712.81,554.75 L714.63,554.75 L716.46,554.74 L718.29,554.74 L720.12,554.73 L721.94,554.73 L723.77,554.72 L725.60,554.72 L727.42,554.71 L729.25,554.70 L731.08,554.70 L732.90,554.69 L734.73,554.68 L736.56,554.67 L738.38,554.66 L740.21,554.65 L742.04,554.64 L743.87,554.62 L745.69,554.61 L747.52,554.59 L749.35,554.58 L751.17,554.56 L753.00,554.54 L754.83,554.52 L756.65,554.50 L758.48,554.47 L760.31,554.45 L762.13,554.42 L763.96,554.39 L765.79,554.35 L767.62,554.32 L769.44,554.28 L771.27,554.24 L773.10,554.19 L774.92,554.15 L776.75,554.09 L778.58,554.04 L780.40,553.98 L782.23,553.91 L784.06,553.84 L785.88,553.76 L787.71,553.68 L789.54,553.59 L791.37,553.50 L793.19,553.40 L795.02,553.29 L796.85,553.17 L798.67,553.04 L800.50,552.90 L802.33,552.75 L804.15,552.59 L805.98,552.42 L807.81,552.23 L809.63,552.03 L811.46,551.82 L813.29,551.59 L815.12,551.34 L816.94,551.07 L818.77,550.78 L820.60,550.48 L822.42,550.15 L824.25,549.79 L826.08,549.41 L827.90,549.00 L829.73,548.57 L831.56,548.10 L833.38,547.60 L835.21,547.07 L837.04,546.50 L838.87,545.89 L840.69,545.24 L842.52,544.55 L844.35,543.82 L846.17,543.04 L848.00,542.21 L849.83,541.33 L851.65,540.40 L853.48,539.42 L855.31,538.38 L857.13,537.29 L858.96,536.13 L860.79,534.92 L862.62,533.65 L864.44,532.32 L866.27,530.93 L868.10,529.48 L869.92,527.97 L871.75,526.40 L873.58,524.77 L875.40,523.09 L877.23,521.36 L879.06,519.58 L880.88,517.75 L882.71,515.88 L884.54,513.97 L886.37,512.03 L888.19,510.06 L890.02,508.07 L891.85,506.05 L893.67,504.03 L895.50,502.00 L897.33,499.97 L899.15,497.95 L900.98,495.93 L902.81,493.94 L904.63,491.97 L906.46,490.03 L908.29,488.12 L910.12,486.25 L911.94,484.42 L913.77,482.64 L915.60,480.91 L917.42,479.23 L919.25,477.60 L921.08,476.03 L922.90,474.52 L924.73,473.07 L926.56,471.68 L928.38,470.35 L930.21,469.08 L932.04,467.87 L933.87,466.71 L935.69,465.62 L937.52,464.58 L939.35,463.60 L941.17,462.67 L943.00,461.79 L944.83,460.96 L946.65,460.18 L948.48,459.45 L950.31,458.76 L952.13,458.11 L953.96,457.50 L955.79,456.93 L957.62,456.40 L959.44,455.90 L961.27,455.43 L963.10,455.00 L964.92,454.59 L966.75,454.21 L968.58,453.85 L970.40,453.52 L972.23,453.22 L974.06,452.93 L975.88,452.66 L977.71,452.41 L979.54,452.18 L981.37,451.97 L983.19,451.77 L985.02,451.58 L986.85,451.41 L988.67,451.25 L990.50,451.10 L992.33,450.96 L994.15,450.83 L995.98,450.71 L997.81,450.60 L999.63,450.50 L1001.46,450.41 L1003.29,450.32 L1005.12,450.24 L1006.94,450.16 L1008.77,450.09 L1010.60,450.02 L1012.42,449.96 L1014.25,449.91 L1016.08,449.85 L1017.90,449.81 L1019.73,449.76 L1021.56,449.72 L1023.38,449.68 L1025.21,449.65 L1027.04,449.61 L1028.87,449.58 L1030.69,449.55 L1032.52,449.53 L1034.35,449.50 L1036.17,449.48 L1038.00,449.46 L1039.83,449.44 L1041.65,449.42 L1043.48,449.41 L1045.31,449.39 L1047.13,449.38 L1048.96,449.36 L1050.79,449.35 L1052.62,449.34 L1054.44,449.33 L1056.27,449.32 L1058.10,449.31 L1059.92,449.30 L1061.75,449.30 L1063.58,449.29 L1065.40,449.28 L1067.23,449.28 L1069.06,449.27 L1070.88,449.27 L1072.71,449.26 L1074.54,449.26 L1076.37,449.25 L1078.19,449.25 L1080.02,449.24 L1081.85,449.24 L1083.67,449.24 L1085.50,449.24 L1087.33,449.23 L1089.15,449.23 L1090.98,449.23 L1092.81,449.23 L1094.63,449.22 L1096.46,449.22 L1098.29,449.22 L1100.12,449.22 L1101.94,449.22 L1103.77,449.22 L1105.60,449.22 L1107.42,449.21 L1109.25,449.21 L1111.08,449.21 L1112.90,449.21 L1114.73,449.21 L1116.56,449.21 L1118.38,449.21 L1120.21,449.21 L1122.04,449.21 L1123.87,449.21 L1125.69,449.21 L1127.52,449.21 L1129.35,449.21 L1131.17,449.21 L1133.00,449.20" fill="none" stroke="#0f766e" stroke-width="3" stroke-linecap="round" stroke-linejoin="round"/>
<rect x="34" y="656" width="550" height="258" rx="8" fill="#ffffff" stroke="#cbd5e1"/>
<text x="54" y="686" font-family="Inter,Arial,sans-serif" font-size="20" font-weight="700" fill="#0f172a">ReLU</text>
<text x="54" y="710" font-family="Inter,Arial,sans-serif" font-size="14" fill="#475569">f(z) = max(0, z)</text>
<line x1="76" y1="843.50" x2="551" y2="843.50" stroke="#cbd5e1"/>
<line x1="313.50" y1="728" x2="313.50" y2="860" stroke="#cbd5e1"/>
<rect x="76" y="728" width="475" height="132" fill="none" stroke="#e2e8f0"/>
<path d="M76.00,843.50 L77.83,843.50 L79.65,843.50 L81.48,843.50 L83.31,843.50 L85.13,843.50 L86.96,843.50 L88.79,843.50 L90.62,843.50 L92.44,843.50 L94.27,843.50 L96.10,843.50 L97.92,843.50 L99.75,843.50 L101.58,843.50 L103.40,843.50 L105.23,843.50 L107.06,843.50 L108.88,843.50 L110.71,843.50 L112.54,843.50 L114.37,843.50 L116.19,843.50 L118.02,843.50 L119.85,843.50 L121.67,843.50 L123.50,843.50 L125.33,843.50 L127.15,843.50 L128.98,843.50 L130.81,843.50 L132.63,843.50 L134.46,843.50 L136.29,843.50 L138.12,843.50 L139.94,843.50 L141.77,843.50 L143.60,843.50 L145.42,843.50 L147.25,843.50 L149.08,843.50 L150.90,843.50 L152.73,843.50 L154.56,843.50 L156.38,843.50 L158.21,843.50 L160.04,843.50 L161.87,843.50 L163.69,843.50 L165.52,843.50 L167.35,843.50 L169.17,843.50 L171.00,843.50 L172.83,843.50 L174.65,843.50 L176.48,843.50 L178.31,843.50 L180.13,843.50 L181.96,843.50 L183.79,843.50 L185.62,843.50 L187.44,843.50 L189.27,843.50 L191.10,843.50 L192.92,843.50 L194.75,843.50 L196.58,843.50 L198.40,843.50 L200.23,843.50 L202.06,843.50 L203.88,843.50 L205.71,843.50 L207.54,843.50 L209.37,843.50 L211.19,843.50 L213.02,843.50 L214.85,843.50 L216.67,843.50 L218.50,843.50 L220.33,843.50 L222.15,843.50 L223.98,843.50 L225.81,843.50 L227.63,843.50 L229.46,843.50 L231.29,843.50 L233.12,843.50 L234.94,843.50 L236.77,843.50 L238.60,843.50 L240.42,843.50 L242.25,843.50 L244.08,843.50 L245.90,843.50 L247.73,843.50 L249.56,843.50 L251.38,843.50 L253.21,843.50 L255.04,843.50 L256.87,843.50 L258.69,843.50 L260.52,843.50 L262.35,843.50 L264.17,843.50 L266.00,843.50 L267.83,843.50 L269.65,843.50 L271.48,843.50 L273.31,843.50 L275.13,843.50 L276.96,843.50 L278.79,843.50 L280.62,843.50 L282.44,843.50 L284.27,843.50 L286.10,843.50 L287.92,843.50 L289.75,843.50 L291.58,843.50 L293.40,843.50 L295.23,843.50 L297.06,843.50 L298.88,843.50 L300.71,843.50 L302.54,843.50 L304.37,843.50 L306.19,843.50 L308.02,843.50 L309.85,843.50 L311.67,843.50 L313.50,843.50 L315.33,842.65 L317.15,841.81 L318.98,840.96 L320.81,840.12 L322.63,839.27 L324.46,838.42 L326.29,837.58 L328.12,836.73 L329.94,835.88 L331.77,835.04 L333.60,834.19 L335.42,833.35 L337.25,832.50 L339.08,831.65 L340.90,830.81 L342.73,829.96 L344.56,829.12 L346.38,828.27 L348.21,827.42 L350.04,826.58 L351.87,825.73 L353.69,824.88 L355.52,824.04 L357.35,823.19 L359.17,822.35 L361.00,821.50 L362.83,820.65 L364.65,819.81 L366.48,818.96 L368.31,818.12 L370.13,817.27 L371.96,816.42 L373.79,815.58 L375.62,814.73 L377.44,813.88 L379.27,813.04 L381.10,812.19 L382.92,811.35 L384.75,810.50 L386.58,809.65 L388.40,808.81 L390.23,807.96 L392.06,807.12 L393.88,806.27 L395.71,805.42 L397.54,804.58 L399.37,803.73 L401.19,802.88 L403.02,802.04 L404.85,801.19 L406.67,800.35 L408.50,799.50 L410.33,798.65 L412.15,797.81 L413.98,796.96 L415.81,796.12 L417.63,795.27 L419.46,794.42 L421.29,793.58 L423.12,792.73 L424.94,791.88 L426.77,791.04 L428.60,790.19 L430.42,789.35 L432.25,788.50 L434.08,787.65 L435.90,786.81 L437.73,785.96 L439.56,785.12 L441.38,784.27 L443.21,783.42 L445.04,782.58 L446.87,781.73 L448.69,780.88 L450.52,780.04 L452.35,779.19 L454.17,778.35 L456.00,777.50 L457.83,776.65 L459.65,775.81 L461.48,774.96 L463.31,774.12 L465.13,773.27 L466.96,772.42 L468.79,771.58 L470.62,770.73 L472.44,769.88 L474.27,769.04 L476.10,768.19 L477.92,767.35 L479.75,766.50 L481.58,765.65 L483.40,764.81 L485.23,763.96 L487.06,763.12 L488.88,762.27 L490.71,761.42 L492.54,760.58 L494.37,759.73 L496.19,758.88 L498.02,758.04 L499.85,757.19 L501.67,756.35 L503.50,755.50 L505.33,754.65 L507.15,753.81 L508.98,752.96 L510.81,752.12 L512.63,751.27 L514.46,750.42 L516.29,749.58 L518.12,748.73 L519.94,747.88 L521.77,747.04 L523.60,746.19 L525.42,745.35 L527.25,744.50 L529.08,743.65 L530.90,742.81 L532.73,741.96 L534.56,741.12 L536.38,740.27 L538.21,739.42 L540.04,738.58 L541.87,737.73 L543.69,736.88 L545.52,736.04 L547.35,735.19 L549.17,734.35 L551.00,733.50" fill="none" stroke="#2563eb" stroke-width="3" stroke-linecap="round" stroke-linejoin="round"/>
<rect x="616" y="656" width="550" height="258" rx="8" fill="#ffffff" stroke="#cbd5e1"/>
<text x="636" y="686" font-family="Inter,Arial,sans-serif" font-size="20" font-weight="700" fill="#0f172a">Leaky ReLU</text>
<text x="636" y="710" font-family="Inter,Arial,sans-serif" font-size="14" fill="#475569">f(z) = z if z&gt;0 else 0.1z</text>
<line x1="658" y1="843.50" x2="1133" y2="843.50" stroke="#cbd5e1"/>
<line x1="895.50" y1="728" x2="895.50" y2="860" stroke="#cbd5e1"/>
<rect x="658" y="728" width="475" height="132" fill="none" stroke="#e2e8f0"/>
<path d="M658.00,854.50 L659.83,854.42 L661.65,854.33 L663.48,854.25 L665.31,854.16 L667.13,854.08 L668.96,853.99 L670.79,853.91 L672.62,853.82 L674.44,853.74 L676.27,853.65 L678.10,853.57 L679.92,853.48 L681.75,853.40 L683.58,853.32 L685.40,853.23 L687.23,853.15 L689.06,853.06 L690.88,852.98 L692.71,852.89 L694.54,852.81 L696.37,852.72 L698.19,852.64 L700.02,852.55 L701.85,852.47 L703.67,852.38 L705.50,852.30 L707.33,852.22 L709.15,852.13 L710.98,852.05 L712.81,851.96 L714.63,851.88 L716.46,851.79 L718.29,851.71 L720.12,851.62 L721.94,851.54 L723.77,851.45 L725.60,851.37 L727.42,851.28 L729.25,851.20 L731.08,851.12 L732.90,851.03 L734.73,850.95 L736.56,850.86 L738.38,850.78 L740.21,850.69 L742.04,850.61 L743.87,850.52 L745.69,850.44 L747.52,850.35 L749.35,850.27 L751.17,850.18 L753.00,850.10 L754.83,850.02 L756.65,849.93 L758.48,849.85 L760.31,849.76 L762.13,849.68 L763.96,849.59 L765.79,849.51 L767.62,849.42 L769.44,849.34 L771.27,849.25 L773.10,849.17 L774.92,849.08 L776.75,849.00 L778.58,848.92 L780.40,848.83 L782.23,848.75 L784.06,848.66 L785.88,848.58 L787.71,848.49 L789.54,848.41 L791.37,848.32 L793.19,848.24 L795.02,848.15 L796.85,848.07 L798.67,847.98 L800.50,847.90 L802.33,847.82 L804.15,847.73 L805.98,847.65 L807.81,847.56 L809.63,847.48 L811.46,847.39 L813.29,847.31 L815.12,847.22 L816.94,847.14 L818.77,847.05 L820.60,846.97 L822.42,846.88 L824.25,846.80 L826.08,846.72 L827.90,846.63 L829.73,846.55 L831.56,846.46 L833.38,846.38 L835.21,846.29 L837.04,846.21 L838.87,846.12 L840.69,846.04 L842.52,845.95 L844.35,845.87 L846.17,845.78 L848.00,845.70 L849.83,845.62 L851.65,845.53 L853.48,845.45 L855.31,845.36 L857.13,845.28 L858.96,845.19 L860.79,845.11 L862.62,845.02 L864.44,844.94 L866.27,844.85 L868.10,844.77 L869.92,844.68 L871.75,844.60 L873.58,844.52 L875.40,844.43 L877.23,844.35 L879.06,844.26 L880.88,844.18 L882.71,844.09 L884.54,844.01 L886.37,843.92 L888.19,843.84 L890.02,843.75 L891.85,843.67 L893.67,843.58 L895.50,843.50 L897.33,842.65 L899.15,841.81 L900.98,840.96 L902.81,840.12 L904.63,839.27 L906.46,838.42 L908.29,837.58 L910.12,836.73 L911.94,835.88 L913.77,835.04 L915.60,834.19 L917.42,833.35 L919.25,832.50 L921.08,831.65 L922.90,830.81 L924.73,829.96 L926.56,829.12 L928.38,828.27 L930.21,827.42 L932.04,826.58 L933.87,825.73 L935.69,824.88 L937.52,824.04 L939.35,823.19 L941.17,822.35 L943.00,821.50 L944.83,820.65 L946.65,819.81 L948.48,818.96 L950.31,818.12 L952.13,817.27 L953.96,816.42 L955.79,815.58 L957.62,814.73 L959.44,813.88 L961.27,813.04 L963.10,812.19 L964.92,811.35 L966.75,810.50 L968.58,809.65 L970.40,808.81 L972.23,807.96 L974.06,807.12 L975.88,806.27 L977.71,805.42 L979.54,804.58 L981.37,803.73 L983.19,802.88 L985.02,802.04 L986.85,801.19 L988.67,800.35 L990.50,799.50 L992.33,798.65 L994.15,797.81 L995.98,796.96 L997.81,796.12 L999.63,795.27 L1001.46,794.42 L1003.29,793.58 L1005.12,792.73 L1006.94,791.88 L1008.77,791.04 L1010.60,790.19 L1012.42,789.35 L1014.25,788.50 L1016.08,787.65 L1017.90,786.81 L1019.73,785.96 L1021.56,785.12 L1023.38,784.27 L1025.21,783.42 L1027.04,782.58 L1028.87,781.73 L1030.69,780.88 L1032.52,780.04 L1034.35,779.19 L1036.17,778.35 L1038.00,777.50 L1039.83,776.65 L1041.65,775.81 L1043.48,774.96 L1045.31,774.12 L1047.13,773.27 L1048.96,772.42 L1050.79,771.58 L1052.62,770.73 L1054.44,769.88 L1056.27,769.04 L1058.10,768.19 L1059.92,767.35 L1061.75,766.50 L1063.58,765.65 L1065.40,764.81 L1067.23,763.96 L1069.06,763.12 L1070.88,762.27 L1072.71,761.42 L1074.54,760.58 L1076.37,759.73 L1078.19,758.88 L1080.02,758.04 L1081.85,757.19 L1083.67,756.35 L1085.50,755.50 L1087.33,754.65 L1089.15,753.81 L1090.98,752.96 L1092.81,752.12 L1094.63,751.27 L1096.46,750.42 L1098.29,749.58 L1100.12,748.73 L1101.94,747.88 L1103.77,747.04 L1105.60,746.19 L1107.42,745.35 L1109.25,744.50 L1111.08,743.65 L1112.90,742.81 L1114.73,741.96 L1116.56,741.12 L1118.38,740.27 L1120.21,739.42 L1122.04,738.58 L1123.87,737.73 L1125.69,736.88 L1127.52,736.04 L1129.35,735.19 L1131.17,734.35 L1133.00,733.50" fill="none" stroke="#ea580c" stroke-width="3" stroke-linecap="round" stroke-linejoin="round"/>
<rect x="34" y="948" width="550" height="258" rx="8" fill="#ffffff" stroke="#cbd5e1"/>
<text x="54" y="978" font-family="Inter,Arial,sans-serif" font-size="20" font-weight="700" fill="#0f172a">GELU exact</text>
<text x="54" y="1002" font-family="Inter,Arial,sans-serif" font-size="14" fill="#475569">f(z) = z Phi(z)</text>
<line x1="76" y1="1134.55" x2="551" y2="1134.55" stroke="#cbd5e1"/>
<line x1="313.50" y1="1020" x2="313.50" y2="1152" stroke="#cbd5e1"/>
<rect x="76" y="1020" width="475" height="132" fill="none" stroke="#e2e8f0"/>
<path d="M76.00,1134.55 L77.83,1134.55 L79.65,1134.55 L81.48,1134.55 L83.31,1134.55 L85.13,1134.55 L86.96,1134.55 L88.79,1134.55 L90.62,1134.55 L92.44,1134.55 L94.27,1134.55 L96.10,1134.55 L97.92,1134.55 L99.75,1134.55 L101.58,1134.55 L103.40,1134.55 L105.23,1134.55 L107.06,1134.55 L108.88,1134.55 L110.71,1134.55 L112.54,1134.55 L114.37,1134.55 L116.19,1134.55 L118.02,1134.55 L119.85,1134.55 L121.67,1134.55 L123.50,1134.55 L125.33,1134.55 L127.15,1134.55 L128.98,1134.55 L130.81,1134.55 L132.63,1134.55 L134.46,1134.55 L136.29,1134.55 L138.12,1134.55 L139.94,1134.56 L141.77,1134.56 L143.60,1134.56 L145.42,1134.56 L147.25,1134.56 L149.08,1134.57 L150.90,1134.57 L152.73,1134.57 L154.56,1134.58 L156.38,1134.58 L158.21,1134.58 L160.04,1134.59 L161.87,1134.59 L163.69,1134.60 L165.52,1134.61 L167.35,1134.62 L169.17,1134.62 L171.00,1134.63 L172.83,1134.64 L174.65,1134.66 L176.48,1134.67 L178.31,1134.68 L180.13,1134.70 L181.96,1134.72 L183.79,1134.73 L185.62,1134.75 L187.44,1134.78 L189.27,1134.80 L191.10,1134.83 L192.92,1134.85 L194.75,1134.88 L196.58,1134.92 L198.40,1134.95 L200.23,1134.99 L202.06,1135.03 L203.88,1135.07 L205.71,1135.12 L207.54,1135.17 L209.37,1135.22 L211.19,1135.28 L213.02,1135.34 L214.85,1135.40 L216.67,1135.47 L218.50,1135.54 L220.33,1135.61 L222.15,1135.69 L223.98,1135.77 L225.81,1135.85 L227.63,1135.94 L229.46,1136.03 L231.29,1136.12 L233.12,1136.22 L234.94,1136.32 L236.77,1136.42 L238.60,1136.52 L240.42,1136.63 L242.25,1136.73 L244.08,1136.84 L245.90,1136.95 L247.73,1137.06 L249.56,1137.16 L251.38,1137.27 L253.21,1137.38 L255.04,1137.48 L256.87,1137.58 L258.69,1137.67 L260.52,1137.77 L262.35,1137.85 L264.17,1137.93 L266.00,1138.01 L267.83,1138.07 L269.65,1138.13 L271.48,1138.18 L273.31,1138.21 L275.13,1138.24 L276.96,1138.25 L278.79,1138.25 L280.62,1138.24 L282.44,1138.21 L284.27,1138.16 L286.10,1138.10 L287.92,1138.01 L289.75,1137.91 L291.58,1137.79 L293.40,1137.65 L295.23,1137.48 L297.06,1137.30 L298.88,1137.09 L300.71,1136.86 L302.54,1136.60 L304.37,1136.32 L306.19,1136.02 L308.02,1135.69 L309.85,1135.33 L311.67,1134.95 L313.50,1134.55 L315.33,1134.11 L317.15,1133.65 L318.98,1133.17 L320.81,1132.66 L322.63,1132.13 L324.46,1131.57 L326.29,1130.99 L328.12,1130.38 L329.94,1129.75 L331.77,1129.09 L333.60,1128.42 L335.42,1127.72 L337.25,1127.00 L339.08,1126.26 L340.90,1125.51 L342.73,1124.73 L344.56,1123.94 L346.38,1123.13 L348.21,1122.31 L350.04,1121.47 L351.87,1120.62 L353.69,1119.75 L355.52,1118.88 L357.35,1117.99 L359.17,1117.09 L361.00,1116.19 L362.83,1115.28 L364.65,1114.36 L366.48,1113.43 L368.31,1112.50 L370.13,1111.56 L371.96,1110.62 L373.79,1109.68 L375.62,1108.74 L377.44,1107.79 L379.27,1106.85 L381.10,1105.90 L382.92,1104.95 L384.75,1104.00 L386.58,1103.06 L388.40,1102.11 L390.23,1101.17 L392.06,1100.23 L393.88,1099.29 L395.71,1098.36 L397.54,1097.43 L399.37,1096.50 L401.19,1095.57 L403.02,1094.65 L404.85,1093.73 L406.67,1092.81 L408.50,1091.90 L410.33,1090.99 L412.15,1090.09 L413.98,1089.19 L415.81,1088.29 L417.63,1087.39 L419.46,1086.50 L421.29,1085.61 L423.12,1084.72 L424.94,1083.84 L426.77,1082.96 L428.60,1082.09 L430.42,1081.21 L432.25,1080.34 L434.08,1079.47 L435.90,1078.60 L437.73,1077.74 L439.56,1076.87 L441.38,1076.01 L443.21,1075.15 L445.04,1074.30 L446.87,1073.44 L448.69,1072.58 L450.52,1071.73 L452.35,1070.88 L454.17,1070.03 L456.00,1069.18 L457.83,1068.33 L459.65,1067.48 L461.48,1066.64 L463.31,1065.79 L465.13,1064.94 L466.96,1064.10 L468.79,1063.26 L470.62,1062.41 L472.44,1061.57 L474.27,1060.73 L476.10,1059.88 L477.92,1059.04 L479.75,1058.20 L481.58,1057.36 L483.40,1056.52 L485.23,1055.68 L487.06,1054.84 L488.88,1053.99 L490.71,1053.15 L492.54,1052.31 L494.37,1051.47 L496.19,1050.63 L498.02,1049.79 L499.85,1048.95 L501.67,1048.12 L503.50,1047.28 L505.33,1046.44 L507.15,1045.60 L508.98,1044.76 L510.81,1043.92 L512.63,1043.08 L514.46,1042.24 L516.29,1041.40 L518.12,1040.56 L519.94,1039.72 L521.77,1038.88 L523.60,1038.04 L525.42,1037.20 L527.25,1036.36 L529.08,1035.52 L530.90,1034.69 L532.73,1033.85 L534.56,1033.01 L536.38,1032.17 L538.21,1031.33 L540.04,1030.49 L541.87,1029.65 L543.69,1028.81 L545.52,1027.97 L547.35,1027.13 L549.17,1026.29 L551.00,1025.45" fill="none" stroke="#16a34a" stroke-width="3" stroke-linecap="round" stroke-linejoin="round"/>
<rect x="616" y="948" width="550" height="258" rx="8" fill="#ffffff" stroke="#cbd5e1"/>
<text x="636" y="978" font-family="Inter,Arial,sans-serif" font-size="20" font-weight="700" fill="#0f172a">SiLU / Swish</text>
<text x="636" y="1002" font-family="Inter,Arial,sans-serif" font-size="14" fill="#475569">f(z) = z sigmoid(z)</text>
<line x1="658" y1="1134.55" x2="1133" y2="1134.55" stroke="#cbd5e1"/>
<line x1="895.50" y1="1020" x2="895.50" y2="1152" stroke="#cbd5e1"/>
<rect x="658" y="1020" width="475" height="132" fill="none" stroke="#e2e8f0"/>
<path d="M658.00,1135.28 L659.83,1135.30 L661.65,1135.32 L663.48,1135.35 L665.31,1135.37 L667.13,1135.40 L668.96,1135.42 L670.79,1135.45 L672.62,1135.48 L674.44,1135.50 L676.27,1135.53 L678.10,1135.56 L679.92,1135.59 L681.75,1135.62 L683.58,1135.66 L685.40,1135.69 L687.23,1135.72 L689.06,1135.76 L690.88,1135.79 L692.71,1135.83 L694.54,1135.87 L696.37,1135.91 L698.19,1135.95 L700.02,1135.99 L701.85,1136.03 L703.67,1136.07 L705.50,1136.12 L707.33,1136.16 L709.15,1136.21 L710.98,1136.25 L712.81,1136.30 L714.63,1136.35 L716.46,1136.40 L718.29,1136.45 L720.12,1136.50 L721.94,1136.56 L723.77,1136.61 L725.60,1136.67 L727.42,1136.73 L729.25,1136.78 L731.08,1136.84 L732.90,1136.90 L734.73,1136.97 L736.56,1137.03 L738.38,1137.09 L740.21,1137.16 L742.04,1137.23 L743.87,1137.29 L745.69,1137.36 L747.52,1137.43 L749.35,1137.50 L751.17,1137.58 L753.00,1137.65 L754.83,1137.72 L756.65,1137.80 L758.48,1137.88 L760.31,1137.95 L762.13,1138.03 L763.96,1138.11 L765.79,1138.19 L767.62,1138.27 L769.44,1138.35 L771.27,1138.43 L773.10,1138.52 L774.92,1138.60 L776.75,1138.68 L778.58,1138.77 L780.40,1138.85 L782.23,1138.93 L784.06,1139.02 L785.88,1139.10 L787.71,1139.18 L789.54,1139.27 L791.37,1139.35 L793.19,1139.43 L795.02,1139.51 L796.85,1139.59 L798.67,1139.67 L800.50,1139.75 L802.33,1139.82 L804.15,1139.90 L805.98,1139.97 L807.81,1140.04 L809.63,1140.10 L811.46,1140.17 L813.29,1140.23 L815.12,1140.29 L816.94,1140.34 L818.77,1140.39 L820.60,1140.44 L822.42,1140.48 L824.25,1140.52 L826.08,1140.55 L827.90,1140.57 L829.73,1140.60 L831.56,1140.61 L833.38,1140.62 L835.21,1140.62 L837.04,1140.62 L838.87,1140.60 L840.69,1140.58 L842.52,1140.55 L844.35,1140.52 L846.17,1140.47 L848.00,1140.41 L849.83,1140.35 L851.65,1140.27 L853.48,1140.19 L855.31,1140.09 L857.13,1139.98 L858.96,1139.86 L860.79,1139.73 L862.62,1139.58 L864.44,1139.43 L866.27,1139.26 L868.10,1139.07 L869.92,1138.88 L871.75,1138.66 L873.58,1138.44 L875.40,1138.20 L877.23,1137.94 L879.06,1137.67 L880.88,1137.39 L882.71,1137.09 L884.54,1136.77 L886.37,1136.44 L888.19,1136.09 L890.02,1135.73 L891.85,1135.35 L893.67,1134.96 L895.50,1134.55 L897.33,1134.12 L899.15,1133.67 L900.98,1133.21 L902.81,1132.74 L904.63,1132.25 L906.46,1131.74 L908.29,1131.22 L910.12,1130.68 L911.94,1130.12 L913.77,1129.55 L915.60,1128.97 L917.42,1128.37 L919.25,1127.75 L921.08,1127.13 L922.90,1126.48 L924.73,1125.83 L926.56,1125.16 L928.38,1124.48 L930.21,1123.78 L932.04,1123.08 L933.87,1122.36 L935.69,1121.63 L937.52,1120.88 L939.35,1120.13 L941.17,1119.37 L943.00,1118.60 L944.83,1117.81 L946.65,1117.02 L948.48,1116.22 L950.31,1115.41 L952.13,1114.59 L953.96,1113.76 L955.79,1112.93 L957.62,1112.09 L959.44,1111.24 L961.27,1110.39 L963.10,1109.53 L964.92,1108.66 L966.75,1107.79 L968.58,1106.91 L970.40,1106.03 L972.23,1105.15 L974.06,1104.26 L975.88,1103.36 L977.71,1102.47 L979.54,1101.57 L981.37,1100.66 L983.19,1099.76 L985.02,1098.85 L986.85,1097.94 L988.67,1097.03 L990.50,1096.11 L992.33,1095.19 L994.15,1094.28 L995.98,1093.36 L997.81,1092.44 L999.63,1091.52 L1001.46,1090.60 L1003.29,1089.67 L1005.12,1088.75 L1006.94,1087.83 L1008.77,1086.91 L1010.60,1085.98 L1012.42,1085.06 L1014.25,1084.14 L1016.08,1083.22 L1017.90,1082.29 L1019.73,1081.37 L1021.56,1080.45 L1023.38,1079.53 L1025.21,1078.61 L1027.04,1077.69 L1028.87,1076.77 L1030.69,1075.86 L1032.52,1074.94 L1034.35,1074.02 L1036.17,1073.11 L1038.00,1072.20 L1039.83,1071.28 L1041.65,1070.37 L1043.48,1069.46 L1045.31,1068.55 L1047.13,1067.64 L1048.96,1066.74 L1050.79,1065.83 L1052.62,1064.93 L1054.44,1064.02 L1056.27,1063.12 L1058.10,1062.22 L1059.92,1061.32 L1061.75,1060.42 L1063.58,1059.52 L1065.40,1058.63 L1067.23,1057.73 L1069.06,1056.84 L1070.88,1055.94 L1072.71,1055.05 L1074.54,1054.16 L1076.37,1053.27 L1078.19,1052.38 L1080.02,1051.50 L1081.85,1050.61 L1083.67,1049.73 L1085.50,1048.84 L1087.33,1047.96 L1089.15,1047.08 L1090.98,1046.20 L1092.81,1045.32 L1094.63,1044.44 L1096.46,1043.56 L1098.29,1042.68 L1100.12,1041.81 L1101.94,1040.93 L1103.77,1040.06 L1105.60,1039.19 L1107.42,1038.31 L1109.25,1037.44 L1111.08,1036.57 L1112.90,1035.70 L1114.73,1034.83 L1116.56,1033.97 L1118.38,1033.10 L1120.21,1032.23 L1122.04,1031.37 L1123.87,1030.50 L1125.69,1029.64 L1127.52,1028.77 L1129.35,1027.91 L1131.17,1027.05 L1133.00,1026.18" fill="none" stroke="#7c3aed" stroke-width="3" stroke-linecap="round" stroke-linejoin="round"/>
<rect x="34" y="1240" width="550" height="258" rx="8" fill="#ffffff" stroke="#cbd5e1"/>
<text x="54" y="1270" font-family="Inter,Arial,sans-serif" font-size="20" font-weight="700" fill="#0f172a">Softmax</text>
<text x="54" y="1294" font-family="Inter,Arial,sans-serif" font-size="14" fill="#475569">softmax([-1, 1, 2]) -&gt; probabilities</text>
<line x1="144" y1="1435" x2="459" y2="1435" stroke="#cbd5e1"/>
<line x1="144" y1="1323" x2="144" y2="1435" stroke="#cbd5e1"/>
<rect x="198" y="1431.07" width="54" height="3.93" rx="3" fill="#2563eb" opacity="0.85"/>
<text x="225.0" y="1457" text-anchor="middle" font-family="Inter,Arial,sans-serif" font-size="13" fill="#475569">-1</text>
<text x="225.0" y="1423.07" text-anchor="middle" font-family="Inter,Arial,sans-serif" font-size="13" fill="#475569">0.04</text>
<rect x="280" y="1405.94" width="54" height="29.06" rx="3" fill="#2563eb" opacity="0.85"/>
<text x="307.0" y="1457" text-anchor="middle" font-family="Inter,Arial,sans-serif" font-size="13" fill="#475569">1</text>
<text x="307.0" y="1397.94" text-anchor="middle" font-family="Inter,Arial,sans-serif" font-size="13" fill="#475569">0.26</text>
<rect x="362" y="1356.00" width="54" height="79.00" rx="3" fill="#2563eb" opacity="0.85"/>
<text x="389.0" y="1457" text-anchor="middle" font-family="Inter,Arial,sans-serif" font-size="13" fill="#475569">2</text>
<text x="389.0" y="1348.00" text-anchor="middle" font-family="Inter,Arial,sans-serif" font-size="13" fill="#475569">0.71</text>
<text x="301.5" y="1479" text-anchor="middle" font-family="Inter,Arial,sans-serif" font-size="13" fill="#475569">logits -> probabilities</text>
<rect x="616" y="1240" width="550" height="258" rx="8" fill="#ffffff" stroke="#cbd5e1"/>
<text x="636" y="1270" font-family="Inter,Arial,sans-serif" font-size="20" font-weight="700" fill="#0f172a">PReLU family</text>
<text x="636" y="1294" font-family="Inter,Arial,sans-serif" font-size="14" fill="#475569">f(z)=z if z&gt;0 else alpha z</text>
<line x1="658" y1="1411.00" x2="1133" y2="1411.00" stroke="#cbd5e1"/>
<line x1="895.50" y1="1312" x2="895.50" y2="1444" stroke="#cbd5e1"/>
<rect x="658" y="1312" width="475" height="132" fill="none" stroke="#e2e8f0"/>
<path d="M658.00,1411.00 L659.83,1411.00 L661.65,1411.00 L663.48,1411.00 L665.31,1411.00 L667.13,1411.00 L668.96,1411.00 L670.79,1411.00 L672.62,1411.00 L674.44,1411.00 L676.27,1411.00 L678.10,1411.00 L679.92,1411.00 L681.75,1411.00 L683.58,1411.00 L685.40,1411.00 L687.23,1411.00 L689.06,1411.00 L690.88,1411.00 L692.71,1411.00 L694.54,1411.00 L696.37,1411.00 L698.19,1411.00 L700.02,1411.00 L701.85,1411.00 L703.67,1411.00 L705.50,1411.00 L707.33,1411.00 L709.15,1411.00 L710.98,1411.00 L712.81,1411.00 L714.63,1411.00 L716.46,1411.00 L718.29,1411.00 L720.12,1411.00 L721.94,1411.00 L723.77,1411.00 L725.60,1411.00 L727.42,1411.00 L729.25,1411.00 L731.08,1411.00 L732.90,1411.00 L734.73,1411.00 L736.56,1411.00 L738.38,1411.00 L740.21,1411.00 L742.04,1411.00 L743.87,1411.00 L745.69,1411.00 L747.52,1411.00 L749.35,1411.00 L751.17,1411.00 L753.00,1411.00 L754.83,1411.00 L756.65,1411.00 L758.48,1411.00 L760.31,1411.00 L762.13,1411.00 L763.96,1411.00 L765.79,1411.00 L767.62,1411.00 L769.44,1411.00 L771.27,1411.00 L773.10,1411.00 L774.92,1411.00 L776.75,1411.00 L778.58,1411.00 L780.40,1411.00 L782.23,1411.00 L784.06,1411.00 L785.88,1411.00 L787.71,1411.00 L789.54,1411.00 L791.37,1411.00 L793.19,1411.00 L795.02,1411.00 L796.85,1411.00 L798.67,1411.00 L800.50,1411.00 L802.33,1411.00 L804.15,1411.00 L805.98,1411.00 L807.81,1411.00 L809.63,1411.00 L811.46,1411.00 L813.29,1411.00 L815.12,1411.00 L816.94,1411.00 L818.77,1411.00 L820.60,1411.00 L822.42,1411.00 L824.25,1411.00 L826.08,1411.00 L827.90,1411.00 L829.73,1411.00 L831.56,1411.00 L833.38,1411.00 L835.21,1411.00 L837.04,1411.00 L838.87,1411.00 L840.69,1411.00 L842.52,1411.00 L844.35,1411.00 L846.17,1411.00 L848.00,1411.00 L849.83,1411.00 L851.65,1411.00 L853.48,1411.00 L855.31,1411.00 L857.13,1411.00 L858.96,1411.00 L860.79,1411.00 L862.62,1411.00 L864.44,1411.00 L866.27,1411.00 L868.10,1411.00 L869.92,1411.00 L871.75,1411.00 L873.58,1411.00 L875.40,1411.00 L877.23,1411.00 L879.06,1411.00 L880.88,1411.00 L882.71,1411.00 L884.54,1411.00 L886.37,1411.00 L888.19,1411.00 L890.02,1411.00 L891.85,1411.00 L893.67,1411.00 L895.50,1411.00 L897.33,1410.27 L899.15,1409.55 L900.98,1408.82 L902.81,1408.10 L904.63,1407.37 L906.46,1406.65 L908.29,1405.92 L910.12,1405.20 L911.94,1404.47 L913.77,1403.75 L915.60,1403.02 L917.42,1402.30 L919.25,1401.57 L921.08,1400.85 L922.90,1400.12 L924.73,1399.40 L926.56,1398.67 L928.38,1397.95 L930.21,1397.22 L932.04,1396.49 L933.87,1395.77 L935.69,1395.04 L937.52,1394.32 L939.35,1393.59 L941.17,1392.87 L943.00,1392.14 L944.83,1391.42 L946.65,1390.69 L948.48,1389.97 L950.31,1389.24 L952.13,1388.52 L953.96,1387.79 L955.79,1387.07 L957.62,1386.34 L959.44,1385.62 L961.27,1384.89 L963.10,1384.16 L964.92,1383.44 L966.75,1382.71 L968.58,1381.99 L970.40,1381.26 L972.23,1380.54 L974.06,1379.81 L975.88,1379.09 L977.71,1378.36 L979.54,1377.64 L981.37,1376.91 L983.19,1376.19 L985.02,1375.46 L986.85,1374.74 L988.67,1374.01 L990.50,1373.29 L992.33,1372.56 L994.15,1371.84 L995.98,1371.11 L997.81,1370.38 L999.63,1369.66 L1001.46,1368.93 L1003.29,1368.21 L1005.12,1367.48 L1006.94,1366.76 L1008.77,1366.03 L1010.60,1365.31 L1012.42,1364.58 L1014.25,1363.86 L1016.08,1363.13 L1017.90,1362.41 L1019.73,1361.68 L1021.56,1360.96 L1023.38,1360.23 L1025.21,1359.51 L1027.04,1358.78 L1028.87,1358.05 L1030.69,1357.33 L1032.52,1356.60 L1034.35,1355.88 L1036.17,1355.15 L1038.00,1354.43 L1039.83,1353.70 L1041.65,1352.98 L1043.48,1352.25 L1045.31,1351.53 L1047.13,1350.80 L1048.96,1350.08 L1050.79,1349.35 L1052.62,1348.63 L1054.44,1347.90 L1056.27,1347.18 L1058.10,1346.45 L1059.92,1345.73 L1061.75,1345.00 L1063.58,1344.27 L1065.40,1343.55 L1067.23,1342.82 L1069.06,1342.10 L1070.88,1341.37 L1072.71,1340.65 L1074.54,1339.92 L1076.37,1339.20 L1078.19,1338.47 L1080.02,1337.75 L1081.85,1337.02 L1083.67,1336.30 L1085.50,1335.57 L1087.33,1334.85 L1089.15,1334.12 L1090.98,1333.40 L1092.81,1332.67 L1094.63,1331.95 L1096.46,1331.22 L1098.29,1330.49 L1100.12,1329.77 L1101.94,1329.04 L1103.77,1328.32 L1105.60,1327.59 L1107.42,1326.87 L1109.25,1326.14 L1111.08,1325.42 L1112.90,1324.69 L1114.73,1323.97 L1116.56,1323.24 L1118.38,1322.52 L1120.21,1321.79 L1122.04,1321.07 L1123.87,1320.34 L1125.69,1319.62 L1127.52,1318.89 L1129.35,1318.16 L1131.17,1317.44 L1133.00,1316.71" fill="none" stroke="#2563eb" stroke-width="3" stroke-linecap="round" stroke-linejoin="round"/>
<path d="M658.00,1420.43 L659.83,1420.36 L661.65,1420.28 L663.48,1420.21 L665.31,1420.14 L667.13,1420.07 L668.96,1419.99 L670.79,1419.92 L672.62,1419.85 L674.44,1419.78 L676.27,1419.70 L678.10,1419.63 L679.92,1419.56 L681.75,1419.49 L683.58,1419.41 L685.40,1419.34 L687.23,1419.27 L689.06,1419.20 L690.88,1419.12 L692.71,1419.05 L694.54,1418.98 L696.37,1418.91 L698.19,1418.83 L700.02,1418.76 L701.85,1418.69 L703.67,1418.62 L705.50,1418.54 L707.33,1418.47 L709.15,1418.40 L710.98,1418.33 L712.81,1418.25 L714.63,1418.18 L716.46,1418.11 L718.29,1418.04 L720.12,1417.96 L721.94,1417.89 L723.77,1417.82 L725.60,1417.75 L727.42,1417.67 L729.25,1417.60 L731.08,1417.53 L732.90,1417.45 L734.73,1417.38 L736.56,1417.31 L738.38,1417.24 L740.21,1417.16 L742.04,1417.09 L743.87,1417.02 L745.69,1416.95 L747.52,1416.87 L749.35,1416.80 L751.17,1416.73 L753.00,1416.66 L754.83,1416.58 L756.65,1416.51 L758.48,1416.44 L760.31,1416.37 L762.13,1416.29 L763.96,1416.22 L765.79,1416.15 L767.62,1416.08 L769.44,1416.00 L771.27,1415.93 L773.10,1415.86 L774.92,1415.79 L776.75,1415.71 L778.58,1415.64 L780.40,1415.57 L782.23,1415.50 L784.06,1415.42 L785.88,1415.35 L787.71,1415.28 L789.54,1415.21 L791.37,1415.13 L793.19,1415.06 L795.02,1414.99 L796.85,1414.92 L798.67,1414.84 L800.50,1414.77 L802.33,1414.70 L804.15,1414.63 L805.98,1414.55 L807.81,1414.48 L809.63,1414.41 L811.46,1414.34 L813.29,1414.26 L815.12,1414.19 L816.94,1414.12 L818.77,1414.05 L820.60,1413.97 L822.42,1413.90 L824.25,1413.83 L826.08,1413.76 L827.90,1413.68 L829.73,1413.61 L831.56,1413.54 L833.38,1413.47 L835.21,1413.39 L837.04,1413.32 L838.87,1413.25 L840.69,1413.18 L842.52,1413.10 L844.35,1413.03 L846.17,1412.96 L848.00,1412.89 L849.83,1412.81 L851.65,1412.74 L853.48,1412.67 L855.31,1412.60 L857.13,1412.52 L858.96,1412.45 L860.79,1412.38 L862.62,1412.31 L864.44,1412.23 L866.27,1412.16 L868.10,1412.09 L869.92,1412.02 L871.75,1411.94 L873.58,1411.87 L875.40,1411.80 L877.23,1411.73 L879.06,1411.65 L880.88,1411.58 L882.71,1411.51 L884.54,1411.44 L886.37,1411.36 L888.19,1411.29 L890.02,1411.22 L891.85,1411.15 L893.67,1411.07 L895.50,1411.00 L897.33,1410.27 L899.15,1409.55 L900.98,1408.82 L902.81,1408.10 L904.63,1407.37 L906.46,1406.65 L908.29,1405.92 L910.12,1405.20 L911.94,1404.47 L913.77,1403.75 L915.60,1403.02 L917.42,1402.30 L919.25,1401.57 L921.08,1400.85 L922.90,1400.12 L924.73,1399.40 L926.56,1398.67 L928.38,1397.95 L930.21,1397.22 L932.04,1396.49 L933.87,1395.77 L935.69,1395.04 L937.52,1394.32 L939.35,1393.59 L941.17,1392.87 L943.00,1392.14 L944.83,1391.42 L946.65,1390.69 L948.48,1389.97 L950.31,1389.24 L952.13,1388.52 L953.96,1387.79 L955.79,1387.07 L957.62,1386.34 L959.44,1385.62 L961.27,1384.89 L963.10,1384.16 L964.92,1383.44 L966.75,1382.71 L968.58,1381.99 L970.40,1381.26 L972.23,1380.54 L974.06,1379.81 L975.88,1379.09 L977.71,1378.36 L979.54,1377.64 L981.37,1376.91 L983.19,1376.19 L985.02,1375.46 L986.85,1374.74 L988.67,1374.01 L990.50,1373.29 L992.33,1372.56 L994.15,1371.84 L995.98,1371.11 L997.81,1370.38 L999.63,1369.66 L1001.46,1368.93 L1003.29,1368.21 L1005.12,1367.48 L1006.94,1366.76 L1008.77,1366.03 L1010.60,1365.31 L1012.42,1364.58 L1014.25,1363.86 L1016.08,1363.13 L1017.90,1362.41 L1019.73,1361.68 L1021.56,1360.96 L1023.38,1360.23 L1025.21,1359.51 L1027.04,1358.78 L1028.87,1358.05 L1030.69,1357.33 L1032.52,1356.60 L1034.35,1355.88 L1036.17,1355.15 L1038.00,1354.43 L1039.83,1353.70 L1041.65,1352.98 L1043.48,1352.25 L1045.31,1351.53 L1047.13,1350.80 L1048.96,1350.08 L1050.79,1349.35 L1052.62,1348.63 L1054.44,1347.90 L1056.27,1347.18 L1058.10,1346.45 L1059.92,1345.73 L1061.75,1345.00 L1063.58,1344.27 L1065.40,1343.55 L1067.23,1342.82 L1069.06,1342.10 L1070.88,1341.37 L1072.71,1340.65 L1074.54,1339.92 L1076.37,1339.20 L1078.19,1338.47 L1080.02,1337.75 L1081.85,1337.02 L1083.67,1336.30 L1085.50,1335.57 L1087.33,1334.85 L1089.15,1334.12 L1090.98,1333.40 L1092.81,1332.67 L1094.63,1331.95 L1096.46,1331.22 L1098.29,1330.49 L1100.12,1329.77 L1101.94,1329.04 L1103.77,1328.32 L1105.60,1327.59 L1107.42,1326.87 L1109.25,1326.14 L1111.08,1325.42 L1112.90,1324.69 L1114.73,1323.97 L1116.56,1323.24 L1118.38,1322.52 L1120.21,1321.79 L1122.04,1321.07 L1123.87,1320.34 L1125.69,1319.62 L1127.52,1318.89 L1129.35,1318.16 L1131.17,1317.44 L1133.00,1316.71" fill="none" stroke="#ea580c" stroke-width="3" stroke-linecap="round" stroke-linejoin="round"/>
<path d="M658.00,1439.29 L659.83,1439.07 L661.65,1438.85 L663.48,1438.63 L665.31,1438.42 L667.13,1438.20 L668.96,1437.98 L670.79,1437.76 L672.62,1437.55 L674.44,1437.33 L676.27,1437.11 L678.10,1436.89 L679.92,1436.67 L681.75,1436.46 L683.58,1436.24 L685.40,1436.02 L687.23,1435.80 L689.06,1435.59 L690.88,1435.37 L692.71,1435.15 L694.54,1434.93 L696.37,1434.72 L698.19,1434.50 L700.02,1434.28 L701.85,1434.06 L703.67,1433.85 L705.50,1433.63 L707.33,1433.41 L709.15,1433.19 L710.98,1432.98 L712.81,1432.76 L714.63,1432.54 L716.46,1432.32 L718.29,1432.11 L720.12,1431.89 L721.94,1431.67 L723.77,1431.45 L725.60,1431.24 L727.42,1431.02 L729.25,1430.80 L731.08,1430.58 L732.90,1430.36 L734.73,1430.15 L736.56,1429.93 L738.38,1429.71 L740.21,1429.49 L742.04,1429.28 L743.87,1429.06 L745.69,1428.84 L747.52,1428.62 L749.35,1428.41 L751.17,1428.19 L753.00,1427.97 L754.83,1427.75 L756.65,1427.54 L758.48,1427.32 L760.31,1427.10 L762.13,1426.88 L763.96,1426.67 L765.79,1426.45 L767.62,1426.23 L769.44,1426.01 L771.27,1425.80 L773.10,1425.58 L774.92,1425.36 L776.75,1425.14 L778.58,1424.93 L780.40,1424.71 L782.23,1424.49 L784.06,1424.27 L785.88,1424.05 L787.71,1423.84 L789.54,1423.62 L791.37,1423.40 L793.19,1423.18 L795.02,1422.97 L796.85,1422.75 L798.67,1422.53 L800.50,1422.31 L802.33,1422.10 L804.15,1421.88 L805.98,1421.66 L807.81,1421.44 L809.63,1421.23 L811.46,1421.01 L813.29,1420.79 L815.12,1420.57 L816.94,1420.36 L818.77,1420.14 L820.60,1419.92 L822.42,1419.70 L824.25,1419.49 L826.08,1419.27 L827.90,1419.05 L829.73,1418.83 L831.56,1418.62 L833.38,1418.40 L835.21,1418.18 L837.04,1417.96 L838.87,1417.75 L840.69,1417.53 L842.52,1417.31 L844.35,1417.09 L846.17,1416.87 L848.00,1416.66 L849.83,1416.44 L851.65,1416.22 L853.48,1416.00 L855.31,1415.79 L857.13,1415.57 L858.96,1415.35 L860.79,1415.13 L862.62,1414.92 L864.44,1414.70 L866.27,1414.48 L868.10,1414.26 L869.92,1414.05 L871.75,1413.83 L873.58,1413.61 L875.40,1413.39 L877.23,1413.18 L879.06,1412.96 L880.88,1412.74 L882.71,1412.52 L884.54,1412.31 L886.37,1412.09 L888.19,1411.87 L890.02,1411.65 L891.85,1411.44 L893.67,1411.22 L895.50,1411.00 L897.33,1410.27 L899.15,1409.55 L900.98,1408.82 L902.81,1408.10 L904.63,1407.37 L906.46,1406.65 L908.29,1405.92 L910.12,1405.20 L911.94,1404.47 L913.77,1403.75 L915.60,1403.02 L917.42,1402.30 L919.25,1401.57 L921.08,1400.85 L922.90,1400.12 L924.73,1399.40 L926.56,1398.67 L928.38,1397.95 L930.21,1397.22 L932.04,1396.49 L933.87,1395.77 L935.69,1395.04 L937.52,1394.32 L939.35,1393.59 L941.17,1392.87 L943.00,1392.14 L944.83,1391.42 L946.65,1390.69 L948.48,1389.97 L950.31,1389.24 L952.13,1388.52 L953.96,1387.79 L955.79,1387.07 L957.62,1386.34 L959.44,1385.62 L961.27,1384.89 L963.10,1384.16 L964.92,1383.44 L966.75,1382.71 L968.58,1381.99 L970.40,1381.26 L972.23,1380.54 L974.06,1379.81 L975.88,1379.09 L977.71,1378.36 L979.54,1377.64 L981.37,1376.91 L983.19,1376.19 L985.02,1375.46 L986.85,1374.74 L988.67,1374.01 L990.50,1373.29 L992.33,1372.56 L994.15,1371.84 L995.98,1371.11 L997.81,1370.38 L999.63,1369.66 L1001.46,1368.93 L1003.29,1368.21 L1005.12,1367.48 L1006.94,1366.76 L1008.77,1366.03 L1010.60,1365.31 L1012.42,1364.58 L1014.25,1363.86 L1016.08,1363.13 L1017.90,1362.41 L1019.73,1361.68 L1021.56,1360.96 L1023.38,1360.23 L1025.21,1359.51 L1027.04,1358.78 L1028.87,1358.05 L1030.69,1357.33 L1032.52,1356.60 L1034.35,1355.88 L1036.17,1355.15 L1038.00,1354.43 L1039.83,1353.70 L1041.65,1352.98 L1043.48,1352.25 L1045.31,1351.53 L1047.13,1350.80 L1048.96,1350.08 L1050.79,1349.35 L1052.62,1348.63 L1054.44,1347.90 L1056.27,1347.18 L1058.10,1346.45 L1059.92,1345.73 L1061.75,1345.00 L1063.58,1344.27 L1065.40,1343.55 L1067.23,1342.82 L1069.06,1342.10 L1070.88,1341.37 L1072.71,1340.65 L1074.54,1339.92 L1076.37,1339.20 L1078.19,1338.47 L1080.02,1337.75 L1081.85,1337.02 L1083.67,1336.30 L1085.50,1335.57 L1087.33,1334.85 L1089.15,1334.12 L1090.98,1333.40 L1092.81,1332.67 L1094.63,1331.95 L1096.46,1331.22 L1098.29,1330.49 L1100.12,1329.77 L1101.94,1329.04 L1103.77,1328.32 L1105.60,1327.59 L1107.42,1326.87 L1109.25,1326.14 L1111.08,1325.42 L1112.90,1324.69 L1114.73,1323.97 L1116.56,1323.24 L1118.38,1322.52 L1120.21,1321.79 L1122.04,1321.07 L1123.87,1320.34 L1125.69,1319.62 L1127.52,1318.89 L1129.35,1318.16 L1131.17,1317.44 L1133.00,1316.71" fill="none" stroke="#e11d48" stroke-width="3" stroke-linecap="round" stroke-linejoin="round"/>
<line x1="674" y1="1466" x2="698" y2="1466" stroke="#2563eb" stroke-width="3"/>
<text x="704" y="1471" font-family="Inter,Arial,sans-serif" font-size="13" fill="#475569">alpha=0</text>
<line x1="806" y1="1466" x2="830" y2="1466" stroke="#ea580c" stroke-width="3"/>
<text x="836" y="1471" font-family="Inter,Arial,sans-serif" font-size="13" fill="#475569">alpha=0.1</text>
<line x1="938" y1="1466" x2="962" y2="1466" stroke="#e11d48" stroke-width="3"/>
<text x="968" y="1471" font-family="Inter,Arial,sans-serif" font-size="13" fill="#475569">alpha=0.3</text>
</svg>
