<svg xmlns="http://www.w3.org/2000/svg" viewBox="0 0 512 512" role="img" aria-labelledby="title desc">
  <title id="title">LLM quantization and low-precision serving icon</title>
  <desc id="desc">A smooth activation curve snapped into four-bit quantization buckets.</desc>
  <defs>
    <linearGradient id="bg" x1="62" y1="54" x2="450" y2="448" gradientUnits="userSpaceOnUse">
      <stop offset="0" stop-color="#312e81"/>
      <stop offset="0.52" stop-color="#7c3aed"/>
      <stop offset="1" stop-color="#111827"/>
    </linearGradient>
    <filter id="shadow" x="-20%" y="-20%" width="140%" height="140%">
      <feDropShadow dx="0" dy="12" stdDeviation="15" flood-color="#020617" flood-opacity="0.35"/>
    </filter>
  </defs>
  <rect width="512" height="512" rx="80" fill="url(#bg)"/>
  <path d="M76 318c44-109 100-161 168-124 35 19 52 71 86 85 35 14 71-12 106-80" fill="none" stroke="#a5f3fc" stroke-width="20" stroke-linecap="round" opacity="0.72"/>
  <g filter="url(#shadow)">
    <g fill="#f8fafc">
      <rect x="80" y="340" width="56" height="88" rx="12"/>
      <rect x="152" y="292" width="56" height="136" rx="12"/>
      <rect x="224" y="220" width="56" height="208" rx="12"/>
      <rect x="296" y="268" width="56" height="160" rx="12"/>
      <rect x="368" y="244" width="56" height="184" rx="12"/>
    </g>
    <g fill="#fbbf24">
      <circle cx="108" cy="326" r="15"/>
      <circle cx="180" cy="278" r="15"/>
      <circle cx="252" cy="206" r="15"/>
      <circle cx="324" cy="254" r="15"/>
      <circle cx="396" cy="230" r="15"/>
    </g>
    <rect x="82" y="78" width="150" height="76" rx="22" fill="#0f172a"/>
    <text x="157" y="129" text-anchor="middle" font-family="Inter, Arial, sans-serif" font-size="48" font-weight="800" fill="#fbbf24">4b</text>
  </g>
  <path d="M76 428h360" stroke="#ddd6fe" stroke-width="11" stroke-linecap="round" opacity="0.88"/>
</svg>
