<svg xmlns="http://www.w3.org/2000/svg" viewBox="0 0 512 512" role="img" aria-labelledby="title desc">
  <title id="title">LLM inference internals icon</title>
  <desc id="desc">A serving engine chip connected to KV cache blocks and token flow.</desc>
  <defs>
    <linearGradient id="bg" x1="56" y1="48" x2="456" y2="456" gradientUnits="userSpaceOnUse">
      <stop offset="0" stop-color="#123c69"/>
      <stop offset="0.58" stop-color="#1f6f8b"/>
      <stop offset="1" stop-color="#111827"/>
    </linearGradient>
    <linearGradient id="chip" x1="156" y1="144" x2="344" y2="352" gradientUnits="userSpaceOnUse">
      <stop offset="0" stop-color="#e0f2fe"/>
      <stop offset="1" stop-color="#bae6fd"/>
    </linearGradient>
    <filter id="shadow" x="-20%" y="-20%" width="140%" height="140%">
      <feDropShadow dx="0" dy="14" stdDeviation="16" flood-color="#020617" flood-opacity="0.35"/>
    </filter>
  </defs>
  <rect width="512" height="512" rx="80" fill="url(#bg)"/>
  <g opacity="0.24" stroke="#f8fafc" stroke-width="15" stroke-linecap="round" fill="none">
    <path d="M72 138h118"/>
    <path d="M72 256h102"/>
    <path d="M72 374h118"/>
    <path d="M322 138h108"/>
    <path d="M338 256h92"/>
    <path d="M322 374h108"/>
  </g>
  <g filter="url(#shadow)">
    <rect x="150" y="138" width="212" height="236" rx="34" fill="url(#chip)"/>
    <rect x="188" y="176" width="136" height="80" rx="18" fill="#0f172a"/>
    <text x="256" y="230" text-anchor="middle" font-family="Inter, Arial, sans-serif" font-size="47" font-weight="800" fill="#67e8f9">KV</text>
    <g fill="#0f172a">
      <rect x="188" y="286" width="48" height="48" rx="12"/>
      <rect x="250" y="286" width="48" height="48" rx="12"/>
      <rect x="312" y="286" width="48" height="48" rx="12"/>
    </g>
    <g fill="#e0f2fe">
      <rect x="93" y="120" width="52" height="52" rx="14"/>
      <rect x="93" y="230" width="52" height="52" rx="14"/>
      <rect x="93" y="340" width="52" height="52" rx="14"/>
    </g>
    <g fill="#fde68a">
      <circle cx="408" cy="138" r="20"/>
      <circle cx="408" cy="256" r="20"/>
      <circle cx="408" cy="374" r="20"/>
    </g>
  </g>
  <path d="M132 256c34-44 73-64 116-59 39 5 71 28 100 69" fill="none" stroke="#fef3c7" stroke-width="12" stroke-linecap="round" opacity="0.85"/>
</svg>
